<svg width="492" height="41" viewBox="0 0 492 41" fill="none" xmlns="http://www.w3.org/2000/svg">
<path d="M41.8 39H27.208V37.512L31.72 34.008L28.024 25.128H11.896L7.96 34.2L16.408 37.08L15.448 39H0.856V37.512L5.368 33.96L18.952 2.808L23.944 0.359997L37.96 34.152L42.76 37.08L41.8 39ZM20.152 6.12L12.856 22.968H27.16L20.152 6.12ZM63.7896 20.616C65.9656 20.616 67.6776 20.024 68.9256 18.84C70.2056 17.656 70.8456 16.024 70.8456 13.944C70.8456 11 70.0936 8.6 68.5896 6.744C67.1176 4.856 64.9576 3.912 62.1096 3.912C59.9336 3.912 57.9496 4.536 56.1576 5.784V35.064L63.5976 37.128L62.6376 39.048H45.6456V37.56L50.1576 34.008V4.824L45.1656 3.192L46.1256 1.272H51.6936C54.7976 1.272 57.8536 1.176 60.8616 0.983997C63.1016 0.855997 64.7496 0.791997 65.8056 0.791997C68.0456 0.791997 70.0296 1.272 71.7576 2.232C73.5176 3.16 74.8776 4.456 75.8376 6.12C76.7976 7.784 77.2776 9.624 77.2776 11.64C77.2776 13.88 76.4616 15.992 74.8296 17.976C73.1976 19.96 71.1176 21.512 68.5896 22.632C66.0616 23.752 63.5816 24.248 61.1496 24.12L58.8936 22.488L59.8536 20.568H63.7416L63.7896 20.616ZM104.268 30.504C104.268 29.512 103.868 28.584 103.068 27.72C102.268 26.856 101.26 26.072 100.044 25.368C98.8599 24.632 97.2439 23.736 95.1959 22.68C92.7639 21.4 90.8119 20.312 89.3399 19.416C87.8679 18.488 86.6039 17.4 85.5479 16.152C84.5239 14.904 84.0119 13.528 84.0119 12.024C84.0119 10.424 84.6839 8.712 86.0279 6.888C87.3719 5.032 89.0039 3.48 90.9239 2.232C92.8759 0.951998 94.6679 0.311997 96.2999 0.311997C98.2839 0.311997 100.588 0.551998 103.212 1.032C105.836 1.512 107.756 2.024 108.972 2.568V11.88H107.148C105.58 9.288 103.852 7.272 101.964 5.832C100.108 4.392 98.1559 3.672 96.1079 3.672C94.2839 3.672 92.8279 4.248 91.7399 5.4C90.6839 6.52 90.1559 7.992 90.1559 9.816C90.1559 10.872 90.5559 11.864 91.3559 12.792C92.1879 13.688 93.1959 14.488 94.3799 15.192C95.5959 15.896 97.2759 16.808 99.4199 17.928C101.788 19.112 103.708 20.168 105.18 21.096C106.652 21.992 107.884 23.048 108.876 24.264C109.9 25.448 110.412 26.792 110.412 28.296C110.412 29.896 109.692 31.624 108.252 33.48C106.812 35.304 105.052 36.856 102.972 38.136C100.924 39.384 99.0519 40.008 97.3559 40.008C95.2759 40.008 92.7959 39.768 89.9159 39.288C87.0679 38.808 85.0199 38.296 83.7719 37.752V28.44H85.5959C87.2279 31.032 89.0839 33.048 91.1639 34.488C93.2439 35.928 95.3879 36.648 97.5959 36.648C98.9079 36.648 100.076 36.36 101.1 35.784C102.124 35.208 102.908 34.456 103.452 33.528C103.996 32.568 104.268 31.56 104.268 30.504ZM154.581 39H139.989V37.512L144.501 34.008L140.805 25.128H124.677L120.741 34.2L129.189 37.08L128.229 39H113.637V37.512L118.149 33.96L131.733 2.808L136.725 0.359997L150.741 34.152L155.541 37.08L154.581 39ZM132.933 6.12L125.637 22.968H139.941L132.933 6.12ZM191.019 6.36V39.048H188.379L165.579 10.2V34.584L170.619 37.128L169.659 39.048H158.427V37.56L162.939 34.008V5.88L157.947 3.192L158.907 1.272H166.155L188.379 29.4V5.688L183.387 3.192L184.347 1.272H195.579V2.808L191.019 6.36ZM234.906 0.311997C236.602 0.311997 238.554 0.551998 240.762 1.032C243.002 1.512 244.634 2.024 245.658 2.568V11.88H243.834C240.89 6.856 236.986 4.344 232.122 4.344C230.01 4.344 228.074 4.968 226.314 6.216C224.586 7.432 223.226 9.144 222.234 11.352C221.242 13.528 220.746 15.976 220.746 18.696C220.746 21.832 221.226 24.696 222.186 27.288C223.178 29.88 224.666 31.96 226.65 33.528C228.666 35.096 231.146 35.88 234.09 35.88C236.81 35.88 240.714 33.832 245.802 29.736L247.242 32.04L238.41 38.904C237.226 39.32 236.074 39.592 234.954 39.72C233.866 39.88 232.682 39.96 231.402 39.96C228.042 39.96 225.066 39.144 222.474 37.512C219.882 35.88 217.866 33.64 216.426 30.792C214.986 27.912 214.266 24.648 214.266 21C214.266 17.256 215.354 13.8 217.53 10.632C219.706 7.432 222.41 4.92 225.642 3.096C228.874 1.24 231.962 0.311997 234.906 0.311997ZM281.961 39H253.161V37.512L257.673 33.96V4.872L252.681 3.192L253.641 1.272H281.481L284.073 0.407999V11.448L282.633 11.928L276.921 3.432H263.673V18.648H271.209L274.713 12.504H276.201V27.096L274.281 28.056L271.257 20.808H263.673V36.84H276.729L283.113 27.384L284.553 27.864V39.864L281.961 39ZM324.847 6.36V39.048H322.207L299.407 10.2V34.584L304.447 37.128L303.487 39.048H292.255V37.56L296.767 34.008V5.88L291.775 3.192L292.735 1.272H299.983L322.207 29.4V5.688L317.215 3.192L318.175 1.272H329.407V2.808L324.847 6.36ZM367.904 12.408L366.464 12.888L360.08 3.432H354.224V35.352L359.264 37.08L358.304 39H343.712V37.512L348.224 33.96V3.432H342.512L336.128 12.888L334.688 12.408V0.407999L337.28 1.272H365.312L367.904 0.407999V12.408ZM408.37 6.312V24.12C408.37 27.48 407.554 30.36 405.922 32.76C404.322 35.16 402.338 36.968 399.97 38.184C397.602 39.368 395.282 39.96 393.01 39.96C390.162 39.96 387.602 39.336 385.33 38.088C383.09 36.808 381.33 35.064 380.05 32.856C378.802 30.616 378.178 28.104 378.178 25.32V4.872L373.186 3.192L374.146 1.272H388.738V2.76L384.178 6.312V23.016C384.178 27.08 385.17 30.248 387.154 32.52C389.17 34.792 392.21 35.928 396.274 35.928C397.778 35.928 399.25 35.448 400.69 34.488C402.162 33.496 403.362 32.056 404.29 30.168C405.25 28.28 405.73 26.056 405.73 23.496V5.688L400.738 3.192L401.698 1.272H412.93V2.76L408.37 6.312ZM452.311 39.096H443.383L432.823 22.056L430.567 20.424L431.287 18.984H433.975C436.151 18.984 437.863 18.44 439.111 17.352C440.391 16.232 441.031 14.712 441.031 12.792C441.031 10.264 440.327 8.168 438.919 6.504C437.511 4.808 435.463 3.96 432.775 3.96C430.983 3.96 429.335 4.488 427.831 5.544V35.448L432.871 37.176L431.911 39.096H417.319V37.608L421.831 34.056V4.872L416.839 3.24L417.799 1.32H423.367C426.279 1.32 429.143 1.224 431.959 1.032C434.007 0.903999 435.527 0.839999 436.519 0.839999C438.663 0.839999 440.567 1.272 442.231 2.136C443.927 3 445.223 4.168 446.119 5.64C447.047 7.112 447.511 8.728 447.511 10.488C447.511 12.088 447.015 13.624 446.023 15.096C445.031 16.536 443.719 17.8 442.087 18.888C440.487 19.944 438.791 20.744 436.999 21.288L440.119 22.344L447.559 34.344L453.271 37.176L452.311 39.096ZM475.331 35.352L480.371 37.08L479.411 39H464.819V37.512L469.331 33.96V25.416L456.995 5.496L453.203 3.192L454.163 1.272H468.755V2.76L464.291 6.216L473.891 21.816L483.875 6.216L476.195 3.192L477.155 1.272H491.747V2.76L487.811 5.16L475.331 24.696V35.352Z" fill="black"/>
</svg>
